<svg width="283" height="321" viewBox="0 0 283 321" fill="none" xmlns="http://www.w3.org/2000/svg">
<path d="M72.0316 256.384C70.2396 256.384 68.5223 256.149 66.8796 255.68C65.237 255.189 63.9143 254.56 62.9116 253.792L64.6716 249.888C65.6316 250.571 66.7623 251.136 68.0636 251.584C69.3863 252.011 70.7196 252.224 72.0636 252.224C73.0876 252.224 73.909 252.128 74.5276 251.936C75.1676 251.723 75.637 251.435 75.9356 251.072C76.2343 250.709 76.3836 250.293 76.3836 249.824C76.3836 249.227 76.149 248.757 75.6796 248.416C75.2103 248.053 74.5916 247.765 73.8236 247.552C73.0556 247.317 72.2023 247.104 71.2636 246.912C70.3463 246.699 69.4183 246.443 68.4796 246.144C67.5623 245.845 66.7196 245.461 65.9516 244.992C65.1836 244.523 64.5543 243.904 64.0636 243.136C63.5943 242.368 63.3596 241.387 63.3596 240.192C63.3596 238.912 63.701 237.749 64.3836 236.704C65.0876 235.637 66.133 234.795 67.5196 234.176C68.9276 233.536 70.6876 233.216 72.7996 233.216C74.2076 233.216 75.5943 233.387 76.9596 233.728C78.325 234.048 79.5303 234.539 80.5756 235.2L78.9756 239.136C77.9303 238.539 76.885 238.101 75.8396 237.824C74.7943 237.525 73.7703 237.376 72.7676 237.376C71.765 237.376 70.9436 237.493 70.3036 237.728C69.6636 237.963 69.205 238.272 68.9276 238.656C68.6503 239.019 68.5116 239.445 68.5116 239.936C68.5116 240.512 68.7463 240.981 69.2156 241.344C69.685 241.685 70.3036 241.963 71.0716 242.176C71.8396 242.389 72.6823 242.603 73.5996 242.816C74.5383 243.029 75.4663 243.275 76.3836 243.552C77.3223 243.829 78.1756 244.203 78.9436 244.672C79.7116 245.141 80.3303 245.76 80.7996 246.528C81.2903 247.296 81.5356 248.267 81.5356 249.44C81.5356 250.699 81.1836 251.851 80.4796 252.896C79.7756 253.941 78.7196 254.784 77.3116 255.424C75.925 256.064 74.165 256.384 72.0316 256.384ZM92.9179 256.256C91.0832 256.256 89.4512 255.872 88.0219 255.104C86.6139 254.336 85.4939 253.291 84.6619 251.968C83.8512 250.624 83.4459 249.099 83.4459 247.392C83.4459 245.664 83.8512 244.139 84.6619 242.816C85.4939 241.472 86.6139 240.427 88.0219 239.68C89.4512 238.912 91.0832 238.528 92.9179 238.528C94.7312 238.528 96.3525 238.912 97.7819 239.68C99.2112 240.427 100.331 241.461 101.142 242.784C101.953 244.107 102.358 245.643 102.358 247.392C102.358 249.099 101.953 250.624 101.142 251.968C100.331 253.291 99.2112 254.336 97.7819 255.104C96.3525 255.872 94.7312 256.256 92.9179 256.256ZM92.9179 252.16C93.7499 252.16 94.4965 251.968 95.1579 251.584C95.8192 251.2 96.3419 250.656 96.7259 249.952C97.1099 249.227 97.3019 248.373 97.3019 247.392C97.3019 246.389 97.1099 245.536 96.7259 244.832C96.3419 244.128 95.8192 243.584 95.1579 243.2C94.4965 242.816 93.7499 242.624 92.9179 242.624C92.0859 242.624 91.3392 242.816 90.6779 243.2C90.0165 243.584 89.4832 244.128 89.0779 244.832C88.6939 245.536 88.5019 246.389 88.5019 247.392C88.5019 248.373 88.6939 249.227 89.0779 249.952C89.4832 250.656 90.0165 251.2 90.6779 251.584C91.3392 251.968 92.0859 252.16 92.9179 252.16ZM105.695 256V232.256H110.687V256H105.695ZM121.79 256L131.774 233.6H136.894L146.91 256H141.47L133.278 236.224H135.326L127.102 256H121.79ZM126.782 251.2L128.158 247.264H139.678L141.086 251.2H126.782ZM155.834 256.256C154.404 256.256 153.124 255.979 151.994 255.424C150.884 254.869 150.02 254.027 149.402 252.896C148.783 251.744 148.474 250.283 148.474 248.512V238.784H153.466V247.776C153.466 249.205 153.764 250.261 154.362 250.944C154.98 251.605 155.844 251.936 156.954 251.936C157.722 251.936 158.404 251.776 159.002 251.456C159.599 251.115 160.068 250.603 160.41 249.92C160.751 249.216 160.922 248.341 160.922 247.296V238.784H165.914V256H161.178V251.264L162.042 252.64C161.466 253.835 160.612 254.741 159.482 255.36C158.372 255.957 157.156 256.256 155.834 256.256ZM177.93 256.256C176.309 256.256 174.848 255.893 173.546 255.168C172.245 254.421 171.21 253.387 170.442 252.064C169.696 250.741 169.322 249.184 169.322 247.392C169.322 245.579 169.696 244.011 170.442 242.688C171.21 241.365 172.245 240.341 173.546 239.616C174.848 238.891 176.309 238.528 177.93 238.528C179.381 238.528 180.65 238.848 181.738 239.488C182.826 240.128 183.669 241.099 184.266 242.4C184.864 243.701 185.162 245.365 185.162 247.392C185.162 249.397 184.874 251.061 184.298 252.384C183.722 253.685 182.89 254.656 181.802 255.296C180.736 255.936 179.445 256.256 177.93 256.256ZM178.794 252.16C179.605 252.16 180.341 251.968 181.002 251.584C181.664 251.2 182.186 250.656 182.57 249.952C182.976 249.227 183.178 248.373 183.178 247.392C183.178 246.389 182.976 245.536 182.57 244.832C182.186 244.128 181.664 243.584 181.002 243.2C180.341 242.816 179.605 242.624 178.794 242.624C177.962 242.624 177.216 242.816 176.554 243.2C175.893 243.584 175.36 244.128 174.954 244.832C174.57 245.536 174.378 246.389 174.378 247.392C174.378 248.373 174.57 249.227 174.954 249.952C175.36 250.656 175.893 251.2 176.554 251.584C177.216 251.968 177.962 252.16 178.794 252.16ZM183.306 256V252.48L183.402 247.36L183.082 242.272V232.256H188.074V256H183.306ZM192.695 256V238.784H197.687V256H192.695ZM195.191 236.384C194.273 236.384 193.527 236.117 192.951 235.584C192.375 235.051 192.087 234.389 192.087 233.6C192.087 232.811 192.375 232.149 192.951 231.616C193.527 231.083 194.273 230.816 195.191 230.816C196.108 230.816 196.855 231.072 197.431 231.584C198.007 232.075 198.295 232.715 198.295 233.504C198.295 234.336 198.007 235.029 197.431 235.584C196.876 236.117 196.129 236.384 195.191 236.384ZM210.512 256.256C208.677 256.256 207.045 255.872 205.616 255.104C204.208 254.336 203.088 253.291 202.256 251.968C201.445 250.624 201.04 249.099 201.04 247.392C201.04 245.664 201.445 244.139 202.256 242.816C203.088 241.472 204.208 240.427 205.616 239.68C207.045 238.912 208.677 238.528 210.512 238.528C212.325 238.528 213.946 238.912 215.376 239.68C216.805 240.427 217.925 241.461 218.736 242.784C219.546 244.107 219.952 245.643 219.952 247.392C219.952 249.099 219.546 250.624 218.736 251.968C217.925 253.291 216.805 254.336 215.376 255.104C213.946 255.872 212.325 256.256 210.512 256.256ZM210.512 252.16C211.344 252.16 212.09 251.968 212.752 251.584C213.413 251.2 213.936 250.656 214.32 249.952C214.704 249.227 214.896 248.373 214.896 247.392C214.896 246.389 214.704 245.536 214.32 244.832C213.936 244.128 213.413 243.584 212.752 243.2C212.09 242.816 211.344 242.624 210.512 242.624C209.68 242.624 208.933 242.816 208.272 243.2C207.61 243.584 207.077 244.128 206.672 244.832C206.288 245.536 206.096 246.389 206.096 247.392C206.096 248.373 206.288 249.227 206.672 249.952C207.077 250.656 207.61 251.2 208.272 251.584C208.933 251.968 209.68 252.16 210.512 252.16ZM41.9066 295.384C40.1146 295.384 38.3973 295.149 36.7546 294.68C35.112 294.189 33.7893 293.56 32.7866 292.792L34.5466 288.888C35.5066 289.571 36.6373 290.136 37.9386 290.584C39.2613 291.011 40.5946 291.224 41.9386 291.224C42.9626 291.224 43.784 291.128 44.4026 290.936C45.0426 290.723 45.512 290.435 45.8106 290.072C46.1093 289.709 46.2586 289.293 46.2586 288.824C46.2586 288.227 46.024 287.757 45.5546 287.416C45.0853 287.053 44.4666 286.765 43.6986 286.552C42.9306 286.317 42.0773 286.104 41.1386 285.912C40.2213 285.699 39.2933 285.443 38.3546 285.144C37.4373 284.845 36.5946 284.461 35.8266 283.992C35.0586 283.523 34.4293 282.904 33.9386 282.136C33.4693 281.368 33.2346 280.387 33.2346 279.192C33.2346 277.912 33.576 276.749 34.2586 275.704C34.9626 274.637 36.008 273.795 37.3946 273.176C38.8026 272.536 40.5626 272.216 42.6746 272.216C44.0826 272.216 45.4693 272.387 46.8346 272.728C48.2 273.048 49.4053 273.539 50.4506 274.2L48.8506 278.136C47.8053 277.539 46.76 277.101 45.7146 276.824C44.6693 276.525 43.6453 276.376 42.6426 276.376C41.64 276.376 40.8186 276.493 40.1786 276.728C39.5386 276.963 39.08 277.272 38.8026 277.656C38.5253 278.019 38.3866 278.445 38.3866 278.936C38.3866 279.512 38.6213 279.981 39.0906 280.344C39.56 280.685 40.1786 280.963 40.9466 281.176C41.7146 281.389 42.5573 281.603 43.4746 281.816C44.4133 282.029 45.3413 282.275 46.2586 282.552C47.1973 282.829 48.0506 283.203 48.8186 283.672C49.5866 284.141 50.2053 284.76 50.6746 285.528C51.1653 286.296 51.4106 287.267 51.4106 288.44C51.4106 289.699 51.0586 290.851 50.3546 291.896C49.6506 292.941 48.5946 293.784 47.1866 294.424C45.8 295.064 44.04 295.384 41.9066 295.384ZM61.6409 295.256C59.6142 295.256 58.0355 294.744 56.9049 293.72C55.7742 292.675 55.2089 291.128 55.2089 289.08V273.976H60.2009V289.016C60.2009 289.741 60.3929 290.307 60.7769 290.712C61.1609 291.096 61.6835 291.288 62.3449 291.288C63.1342 291.288 63.8062 291.075 64.3609 290.648L65.7049 294.168C65.1929 294.531 64.5742 294.808 63.8489 295C63.1449 295.171 62.4089 295.256 61.6409 295.256ZM52.5529 282.008V278.168H64.4889V282.008H52.5529ZM76.5199 295.256C74.5572 295.256 72.8292 294.872 71.3359 294.104C69.8639 293.336 68.7225 292.291 67.9119 290.968C67.1012 289.624 66.6959 288.099 66.6959 286.392C66.6959 284.664 67.0905 283.139 67.8799 281.816C68.6905 280.472 69.7892 279.427 71.1759 278.68C72.5625 277.912 74.1305 277.528 75.8799 277.528C77.5652 277.528 79.0799 277.891 80.4239 278.616C81.7892 279.32 82.8665 280.344 83.6559 281.688C84.4452 283.011 84.8399 284.6 84.8399 286.456C84.8399 286.648 84.8292 286.872 84.8079 287.128C84.7865 287.363 84.7652 287.587 84.7439 287.8H70.7599V284.888H82.1199L80.1999 285.752C80.1999 284.856 80.0185 284.077 79.6559 283.416C79.2932 282.755 78.7919 282.243 78.1519 281.88C77.5119 281.496 76.7652 281.304 75.9119 281.304C75.0585 281.304 74.3012 281.496 73.6399 281.88C72.9999 282.243 72.4985 282.765 72.1359 283.448C71.7732 284.109 71.5919 284.899 71.5919 285.816V286.584C71.5919 287.523 71.7945 288.355 72.1999 289.08C72.6265 289.784 73.2132 290.328 73.9599 290.712C74.7279 291.075 75.6239 291.256 76.6479 291.256C77.5652 291.256 78.3652 291.117 79.0479 290.84C79.7519 290.563 80.3919 290.147 80.9679 289.592L83.6239 292.472C82.8345 293.368 81.8425 294.061 80.6479 294.552C79.4532 295.021 78.0772 295.256 76.5199 295.256ZM110.211 277.528C111.577 277.528 112.782 277.805 113.827 278.36C114.894 278.893 115.726 279.725 116.323 280.856C116.942 281.965 117.251 283.395 117.251 285.144V295H112.259V285.912C112.259 284.525 111.971 283.501 111.395 282.84C110.819 282.179 110.009 281.848 108.963 281.848C108.238 281.848 107.587 282.019 107.011 282.36C106.435 282.68 105.987 283.171 105.667 283.832C105.347 284.493 105.187 285.336 105.187 286.36V295H100.195V285.912C100.195 284.525 99.9074 283.501 99.3314 282.84C98.7767 282.179 97.9767 281.848 96.9314 281.848C96.206 281.848 95.5554 282.019 94.9794 282.36C94.4034 282.68 93.9554 283.171 93.6354 283.832C93.3154 284.493 93.1554 285.336 93.1554 286.36V295H88.1634V277.784H92.9314V282.488L92.0354 281.112C92.6327 279.939 93.4754 279.053 94.5634 278.456C95.6727 277.837 96.9314 277.528 98.3394 277.528C99.918 277.528 101.294 277.933 102.467 278.744C103.662 279.533 104.451 280.749 104.835 282.392L103.075 281.912C103.651 280.568 104.569 279.501 105.827 278.712C107.107 277.923 108.569 277.528 110.211 277.528ZM138.5 295.384C136.708 295.384 134.991 295.149 133.348 294.68C131.706 294.189 130.383 293.56 129.38 292.792L131.14 288.888C132.1 289.571 133.231 290.136 134.532 290.584C135.855 291.011 137.188 291.224 138.532 291.224C139.556 291.224 140.378 291.128 140.996 290.936C141.636 290.723 142.106 290.435 142.404 290.072C142.703 289.709 142.852 289.293 142.852 288.824C142.852 288.227 142.618 287.757 142.148 287.416C141.679 287.053 141.06 286.765 140.292 286.552C139.524 286.317 138.671 286.104 137.732 285.912C136.815 285.699 135.887 285.443 134.948 285.144C134.031 284.845 133.188 284.461 132.42 283.992C131.652 283.523 131.023 282.904 130.532 282.136C130.063 281.368 129.828 280.387 129.828 279.192C129.828 277.912 130.17 276.749 130.852 275.704C131.556 274.637 132.602 273.795 133.988 273.176C135.396 272.536 137.156 272.216 139.268 272.216C140.676 272.216 142.063 272.387 143.428 272.728C144.794 273.048 145.999 273.539 147.044 274.2L145.444 278.136C144.399 277.539 143.354 277.101 142.308 276.824C141.263 276.525 140.239 276.376 139.236 276.376C138.234 276.376 137.412 276.493 136.772 276.728C136.132 276.963 135.674 277.272 135.396 277.656C135.119 278.019 134.98 278.445 134.98 278.936C134.98 279.512 135.215 279.981 135.684 280.344C136.154 280.685 136.772 280.963 137.54 281.176C138.308 281.389 139.151 281.603 140.068 281.816C141.007 282.029 141.935 282.275 142.852 282.552C143.791 282.829 144.644 283.203 145.412 283.672C146.18 284.141 146.799 284.76 147.268 285.528C147.759 286.296 148.004 287.267 148.004 288.44C148.004 289.699 147.652 290.851 146.948 291.896C146.244 292.941 145.188 293.784 143.78 294.424C142.394 295.064 140.634 295.384 138.5 295.384ZM161.371 295.256C159.92 295.256 158.651 294.936 157.563 294.296C156.475 293.656 155.621 292.685 155.003 291.384C154.405 290.061 154.107 288.397 154.107 286.392C154.107 284.365 154.395 282.701 154.971 281.4C155.547 280.099 156.379 279.128 157.467 278.488C158.555 277.848 159.856 277.528 161.371 277.528C162.992 277.528 164.443 277.901 165.723 278.648C167.024 279.373 168.048 280.397 168.795 281.72C169.563 283.043 169.947 284.6 169.947 286.392C169.947 288.205 169.563 289.773 168.795 291.096C168.048 292.419 167.024 293.443 165.723 294.168C164.443 294.893 162.992 295.256 161.371 295.256ZM151.195 301.208V277.784H155.963V281.304L155.867 286.424L156.187 291.512V301.208H151.195ZM160.507 291.16C161.339 291.16 162.075 290.968 162.715 290.584C163.376 290.2 163.899 289.656 164.283 288.952C164.688 288.227 164.891 287.373 164.891 286.392C164.891 285.389 164.688 284.536 164.283 283.832C163.899 283.128 163.376 282.584 162.715 282.2C162.075 281.816 161.339 281.624 160.507 281.624C159.675 281.624 158.928 281.816 158.267 282.2C157.605 282.584 157.083 283.128 156.699 283.832C156.315 284.536 156.123 285.389 156.123 286.392C156.123 287.373 156.315 288.227 156.699 288.952C157.083 289.656 157.605 290.2 158.267 290.584C158.928 290.968 159.675 291.16 160.507 291.16ZM173.288 295V271.256H178.28V295H173.288ZM182.913 295V277.784H187.905V295H182.913ZM185.409 275.384C184.492 275.384 183.745 275.117 183.169 274.584C182.593 274.051 182.305 273.389 182.305 272.6C182.305 271.811 182.593 271.149 183.169 270.616C183.745 270.083 184.492 269.816 185.409 269.816C186.327 269.816 187.073 270.072 187.649 270.584C188.225 271.075 188.513 271.715 188.513 272.504C188.513 273.336 188.225 274.029 187.649 274.584C187.095 275.117 186.348 275.384 185.409 275.384ZM199.578 295.256C197.552 295.256 195.973 294.744 194.842 293.72C193.712 292.675 193.146 291.128 193.146 289.08V273.976H198.138V289.016C198.138 289.741 198.33 290.307 198.714 290.712C199.098 291.096 199.621 291.288 200.282 291.288C201.072 291.288 201.744 291.075 202.298 290.648L203.642 294.168C203.13 294.531 202.512 294.808 201.786 295C201.082 295.171 200.346 295.256 199.578 295.256ZM190.49 282.008V278.168H202.426V282.008H190.49ZM213.11 295.256C211.083 295.256 209.504 294.744 208.374 293.72C207.243 292.675 206.678 291.128 206.678 289.08V273.976H211.67V289.016C211.67 289.741 211.862 290.307 212.246 290.712C212.63 291.096 213.152 291.288 213.814 291.288C214.603 291.288 215.275 291.075 215.83 290.648L217.174 294.168C216.662 294.531 216.043 294.808 215.318 295C214.614 295.171 213.878 295.256 213.11 295.256ZM204.022 282.008V278.168H215.958V282.008H204.022ZM227.989 295.256C226.026 295.256 224.298 294.872 222.805 294.104C221.333 293.336 220.191 292.291 219.381 290.968C218.57 289.624 218.165 288.099 218.165 286.392C218.165 284.664 218.559 283.139 219.349 281.816C220.159 280.472 221.258 279.427 222.645 278.68C224.031 277.912 225.599 277.528 227.349 277.528C229.034 277.528 230.549 277.891 231.893 278.616C233.258 279.32 234.335 280.344 235.125 281.688C235.914 283.011 236.309 284.6 236.309 286.456C236.309 286.648 236.298 286.872 236.277 287.128C236.255 287.363 236.234 287.587 236.213 287.8H222.229V284.888H233.589L231.669 285.752C231.669 284.856 231.487 284.077 231.125 283.416C230.762 282.755 230.261 282.243 229.621 281.88C228.981 281.496 228.234 281.304 227.381 281.304C226.527 281.304 225.77 281.496 225.109 281.88C224.469 282.243 223.967 282.765 223.605 283.448C223.242 284.109 223.061 284.899 223.061 285.816V286.584C223.061 287.523 223.263 288.355 223.669 289.08C224.095 289.784 224.682 290.328 225.429 290.712C226.197 291.075 227.093 291.256 228.117 291.256C229.034 291.256 229.834 291.117 230.517 290.84C231.221 290.563 231.861 290.147 232.437 289.592L235.093 292.472C234.303 293.368 233.311 294.061 232.117 294.552C230.922 295.021 229.546 295.256 227.989 295.256ZM239.632 295V277.784H244.4V282.648L243.728 281.24C244.24 280.024 245.061 279.107 246.192 278.488C247.323 277.848 248.699 277.528 250.32 277.528V282.136C250.107 282.115 249.915 282.104 249.744 282.104C249.573 282.083 249.392 282.072 249.2 282.072C247.835 282.072 246.725 282.467 245.872 283.256C245.04 284.024 244.624 285.229 244.624 286.872V295H239.632Z" fill="#0C2A49"/>
<path fill-rule="evenodd" clip-rule="evenodd" d="M145.764 1.78064C139.72 4.56464 126.543 14.3096 119.462 21.2336C107.099 33.3206 102.077 44.1506 102.001 58.8946C101.943 70.0806 104.022 76.8126 110.291 85.7386C116.473 94.5416 123.855 100.198 135.891 105.351C146.607 109.94 154.491 115.001 157.496 119.221C162.483 126.225 160.463 144.272 153.029 159.125C147.532 170.108 137.147 180.534 124.826 187.44C118.165 191.173 115.582 193.206 114.685 195.422C112.915 199.798 114.826 204.671 119.264 207.098C124.113 209.749 134.946 209.239 141.476 206.052C154.776 199.563 172.516 173.169 178.202 151.41C183.819 129.915 181.306 113.295 170.803 102.488C165.331 96.8586 161.096 94.2296 148.906 88.8956C135.45 83.0076 130.347 78.7816 125.859 69.8126C120.47 59.0396 121.041 51.6756 128.06 41.4596C130.648 37.6916 148.715 21.8946 150.436 21.8946C151.699 21.8946 151.34 28.9356 149.866 33.0636C149.145 35.0816 146.051 40.9316 142.99 46.0636C139.929 51.1956 137.138 56.5376 136.789 57.9336C135.291 63.9186 140.601 69.6166 146.623 68.4866C156.074 66.7136 168.523 45.1156 169.958 28.0026C170.972 15.9046 165.77 4.67564 157.562 1.24564C153.259 -0.552361 150.563 -0.429361 145.764 1.78064Z" fill="url(#paint0_radial_25_44)"/>
<defs>
<radialGradient id="paint0_radial_25_44" cx="0" cy="0" r="1" gradientUnits="userSpaceOnUse" gradientTransform="translate(138.5 35) rotate(90.4939) scale(174.006 132.719)">
<stop stop-color="#309BA9"/>
<stop offset="1" stop-color="#0C2A49"/>
</radialGradient>
</defs>
</svg>
