<svg width="80" height="209" viewBox="0 0 80 209" fill="none" xmlns="http://www.w3.org/2000/svg">
<path fill-rule="evenodd" clip-rule="evenodd" d="M43.7642 1.78064C37.7202 4.56464 24.5432 14.3096 17.4622 21.2336C5.09918 33.3206 0.0771755 44.1506 0.00117555 58.8946C-0.0568245 70.0806 2.02218 76.8126 8.29118 85.7386C14.4732 94.5416 21.8552 100.198 33.8912 105.351C44.6072 109.94 52.4912 115.001 55.4962 119.221C60.4832 126.225 58.4632 144.272 51.0292 159.125C45.5322 170.108 35.1472 180.534 22.8262 187.44C16.1652 191.173 13.5822 193.206 12.6852 195.422C10.9152 199.798 12.8262 204.671 17.2642 207.098C22.1132 209.749 32.9462 209.239 39.4762 206.052C52.7762 199.563 70.5162 173.169 76.2022 151.41C81.8192 129.915 79.3062 113.295 68.8032 102.488C63.3312 96.8586 59.0962 94.2296 46.9062 88.8956C33.4502 83.0076 28.3472 78.7816 23.8592 69.8126C18.4702 59.0396 19.0412 51.6756 26.0602 41.4596C28.6482 37.6916 46.7152 21.8946 48.4362 21.8946C49.6992 21.8946 49.3402 28.9356 47.8662 33.0636C47.1452 35.0816 44.0512 40.9316 40.9902 46.0636C37.9292 51.1956 35.1382 56.5376 34.7892 57.9336C33.2912 63.9186 38.6012 69.6166 44.6232 68.4866C54.0742 66.7136 66.5232 45.1156 67.9582 28.0026C68.9722 15.9046 63.7702 4.67564 55.5622 1.24564C51.2592 -0.552361 48.5632 -0.429361 43.7642 1.78064Z" fill="url(#paint0_radial_25_46)"/>
<defs>
<radialGradient id="paint0_radial_25_46" cx="0" cy="0" r="1" gradientUnits="userSpaceOnUse" gradientTransform="translate(36.5 35) rotate(90.4939) scale(174.006 132.719)">
<stop stop-color="#309BA9"/>
<stop offset="1" stop-color="#0C2A49"/>
</radialGradient>
</defs>
</svg>
