<svg width="243" height="243" viewBox="0 0 243 243" fill="none" xmlns="http://www.w3.org/2000/svg">
<circle cx="121.5" cy="121.5" r="121.5" fill="#0C2A49"/>
<path d="M130.759 16.0117C132.971 15.9113 135.028 16.4372 137.333 17.4004L137.768 17.5889C146.678 21.6155 151.823 33.4158 150.996 45.5811L150.951 46.1699C150.204 55.0826 146.614 65.0425 142.029 72.9961C139.732 76.9817 137.146 80.5325 134.476 83.2275C131.928 85.7985 129.124 87.7723 126.269 88.3965L125.992 88.4521C118.511 89.8559 112.003 82.8219 113.849 75.4482L113.909 75.2314C114.068 74.7058 114.349 74.0458 114.659 73.374C115.036 72.5569 115.529 71.5664 116.1 70.4736C117.243 68.2857 118.725 65.6342 120.272 63.0391C123.345 57.8878 126.337 52.1976 126.982 50.3906L127.103 50.0391C127.69 48.2373 128.077 45.8359 128.18 43.8291C128.196 43.5121 128.202 43.2151 128.204 42.9404C127.788 43.2448 127.32 43.5992 126.807 43.999C124.87 45.5077 122.401 47.5739 119.89 49.7695C117.38 51.9635 114.851 54.2689 112.795 56.252C110.945 58.0362 109.596 59.4503 108.944 60.2754L108.709 60.5918C105.304 65.548 103.61 69.604 103.301 73.582C102.993 77.5521 104.043 81.7122 106.647 86.918L107.053 87.71C109.084 91.5994 111.244 94.4422 114.295 96.9688C117.596 99.7018 122.031 102.142 128.708 105.063L130.923 106.042C141.562 110.796 145.86 113.562 151.237 119.094L151.756 119.639C162.338 130.981 164.677 147.886 159.398 168.896L159.137 169.915C156.225 181.058 150.258 193.301 143.354 203.572C136.712 213.455 128.993 221.827 122.025 225.508L121.354 225.849C117.78 227.593 113.155 228.558 108.834 228.762C104.704 228.956 100.481 228.472 97.5811 226.998L97.3047 226.853C92.0742 223.992 89.6402 218.089 91.8311 212.672V212.671L91.9561 212.382C92.6102 210.947 93.7354 209.704 95.3574 208.428C97.0772 207.074 99.5028 205.57 102.849 203.695L103.97 203.053C115.499 196.319 125.114 186.473 130.24 176.229L130.575 175.551C133.995 168.512 136.173 160.794 136.933 154.007C137.325 150.506 137.334 147.299 136.966 144.592C136.618 142.032 135.948 140.035 135.05 138.649L134.867 138.381C133.584 136.579 131.113 134.424 127.505 132.107C123.934 129.815 119.387 127.452 114.104 125.189V125.188C102.185 120.086 94.5782 114.421 88.2617 105.738L87.6543 104.888C84.4418 100.314 82.2384 96.2099 80.8623 91.7539C79.4871 87.3006 78.9713 82.6032 79.001 76.8838C79.0403 69.2721 80.3601 62.5879 83.3096 56.2266C86.2517 49.881 90.7682 43.9585 97.0635 37.8037L97.7617 37.1309C101.334 33.7301 106.145 29.7989 110.812 26.3467C115.762 22.6865 120.707 19.4476 123.928 17.9639L124.849 17.5537C126.963 16.6474 128.846 16.0986 130.759 16.0117Z" fill="#309BA9" stroke="white" stroke-width="4"/>
</svg>
